<?xml version="1.0" encoding="UTF-8" standalone="no"?>
<!-- Created with Inkscape (http://www.inkscape.org/) -->

<svg
   xmlns:osb="http://www.openswatchbook.org/uri/2009/osb"
   xmlns:dc="http://purl.org/dc/elements/1.1/"
   xmlns:cc="http://creativecommons.org/ns#"
   xmlns:rdf="http://www.w3.org/1999/02/22-rdf-syntax-ns#"
   xmlns:svg="http://www.w3.org/2000/svg"
   xmlns="http://www.w3.org/2000/svg"
   xmlns:xlink="http://www.w3.org/1999/xlink"
   xmlns:sodipodi="http://sodipodi.sourceforge.net/DTD/sodipodi-0.dtd"
   xmlns:inkscape="http://www.inkscape.org/namespaces/inkscape"
   width="744.09003"
   height="852.35999"
   id="svg2"
   version="1.1"
   inkscape:version="0.48.2 r9819"
   sodipodi:docname="r-is-for-rocket.svg">
  <title
     id="title4144">R is for Rocket</title>
  <defs
     id="defs4">
    <linearGradient
       inkscape:collect="always"
       id="linearGradient5224">
      <stop
         style="stop-color:#000000;stop-opacity:1;"
         offset="0"
         id="stop5226" />
      <stop
         style="stop-color:#000000;stop-opacity:0;"
         offset="1"
         id="stop5228" />
    </linearGradient>
    <linearGradient
       id="linearGradient5216"
       osb:paint="solid">
      <stop
         style="stop-color:#ff6600;stop-opacity:1;"
         offset="0"
         id="stop5218" />
    </linearGradient>
    <radialGradient
       inkscape:collect="always"
       xlink:href="#linearGradient5216"
       id="radialGradient5222"
       cx="403.89147"
       cy="385.59279"
       fx="403.89147"
       fy="385.59279"
       r="33.92728"
       gradientTransform="matrix(1,0,0,1.0178259,0,-6.8735302)"
       gradientUnits="userSpaceOnUse" />
    <linearGradient
       inkscape:collect="always"
       xlink:href="#linearGradient5224"
       id="linearGradient5230"
       x1="369.96419"
       y1="385.59279"
       x2="437.81875"
       y2="385.59279"
       gradientUnits="userSpaceOnUse" />
    <radialGradient
       inkscape:collect="always"
       xlink:href="#linearGradient5216"
       id="radialGradient5246"
       gradientUnits="userSpaceOnUse"
       gradientTransform="matrix(1,0,0,1.0178259,0,-6.8735302)"
       cx="403.89147"
       cy="385.59279"
       fx="403.89147"
       fy="385.59279"
       r="33.92728" />
    <linearGradient
       inkscape:collect="always"
       xlink:href="#linearGradient5224"
       id="linearGradient5248"
       gradientUnits="userSpaceOnUse"
       x1="369.96419"
       y1="385.59279"
       x2="437.81875"
       y2="385.59279" />
    <linearGradient
       inkscape:collect="always"
       xlink:href="#linearGradient5224"
       id="linearGradient5264"
       gradientUnits="userSpaceOnUse"
       x1="369.96419"
       y1="385.59279"
       x2="437.81875"
       y2="385.59279" />
    <linearGradient
       inkscape:collect="always"
       xlink:href="#linearGradient5224"
       id="linearGradient5282"
       gradientUnits="userSpaceOnUse"
       x1="369.96419"
       y1="385.59279"
       x2="437.81875"
       y2="385.59279" />
    <linearGradient
       inkscape:collect="always"
       xlink:href="#linearGradient5224"
       id="linearGradient5328"
       gradientUnits="userSpaceOnUse"
       x1="369.96419"
       y1="385.59279"
       x2="437.81875"
       y2="385.59279" />
    <linearGradient
       inkscape:collect="always"
       xlink:href="#linearGradient5224"
       id="linearGradient5344"
       gradientUnits="userSpaceOnUse"
       x1="369.96419"
       y1="385.59279"
       x2="437.81875"
       y2="385.59279" />
    <linearGradient
       inkscape:collect="always"
       xlink:href="#linearGradient5224"
       id="linearGradient5371"
       gradientUnits="userSpaceOnUse"
       x1="369.96419"
       y1="385.59279"
       x2="437.81875"
       y2="385.59279" />
  </defs>
  <sodipodi:namedview
     id="base"
     pagecolor="#ffffff"
     bordercolor="#666666"
     borderopacity="1.0"
     inkscape:pageopacity="0.0"
     inkscape:pageshadow="2"
     inkscape:zoom="0.90220096"
     inkscape:cx="360.96101"
     inkscape:cy="425.80401"
     inkscape:document-units="px"
     inkscape:current-layer="g4027"
     showgrid="false"
     inkscape:window-width="1680"
     inkscape:window-height="988"
     inkscape:window-x="-8"
     inkscape:window-y="-8"
     inkscape:window-maximized="1" />
  <g
     inkscape:label="Ebene 1"
     inkscape:groupmode="layer"
     id="layer1"
     transform="translate(0,-200.00295)">
    <g
       id="g4027"
       transform="matrix(0.97210302,0.84691058,-0.84691058,0.97210302,427.97804,-164.85737)">
      <g
         id="g5384"
         inkscape:export-filename="C:\zwamp\vdrive\web\MyPac\bin\Gfx\rocketstarship3.png"
         inkscape:export-xdpi="113.06"
         inkscape:export-ydpi="113.06">
        <g
           id="g3191"
           transform="matrix(-0.54042417,-0.61732156,0.75241492,-0.65868947,185.15844,1049.688)">
          <path
             inkscape:connector-curvature="0"
             style="fill:#000000;fill-opacity:0.97254902;stroke:none"
             d="m 366.75,117.1875 0,2.40625 c -49.12702,138.32715 -60.5625,234.39029 -60.5625,369.1875 0,16.4552 0.39833,32.06392 1.15625,46.8125 -59.99992,23.01135 -62.7994,122.94865 -46.875,194.1875 13.85754,-27.99231 25.00083,-58.26429 71.125,-59.21875 4.47349,11.09485 9.41658,20.28238 14.71875,27.5625 l 15.4375,0 c -1.81391,-35.19671 -2.34375,-68.94765 -2.34375,-96.8125 0.4264,-27.05697 -1.18556,-60.23008 7.875,-59.65625 9.9024,0.62714 7.90625,33.1731 7.90625,59.65625 0.68897,28.75959 0.16981,62.14066 -1.8125,96.8125 l 14.65625,0 c 5.2997,-7.27809 10.24814,-16.47246 14.71875,-27.5625 46.36932,0.83247 57.51951,31.16748 71.40625,59.21875 15.95223,-71.3634 13.11785,-171.49947 -47.1875,-194.28125 0.7535,-14.71499 1.15625,-30.30627 1.15625,-46.71875 0,-134.79721 -11.40423,-230.86035 -60.53125,-369.1875 l 0,-2.40625 c -0.14395,0.40317 -0.29418,0.8163 -0.4375,1.21875 -0.14331,-0.40245 -0.26229,-0.81558 -0.40625,-1.21875 z m 0.5625,169.46875 c 12.79355,0 23.24962,10.21026 23.5625,23 l 0,0.5625 c 0,13.01814 -10.54436,23.5625 -23.5625,23.5625 -13.01814,0 -23.5625,-10.54436 -23.5625,-23.5625 0,-13.01814 10.54436,-23.5625 23.5625,-23.5625 z"
             transform="matrix(1.2188379,0,0,1,-79.859348,2.1428571)"
             id="path2985" />
          <g
             transform="matrix(0.72759666,0,0,0.80335423,122.25014,16.269581)"
             id="g3080">
            <path
               style="fill:#000400;fill-opacity:0.97254902;stroke:none"
               d="m 337.67809,667.43022 c 12.186,0.64247 9.70754,34.00669 9.70754,61.13774 1.41829,49.28603 -1.28744,111.74956 -9.70754,171.65594 -7.94744,-60.01809 -9.70754,-124.15444 -9.70754,-171.65594 0.52474,-27.71892 -1.44249,-61.72562 9.70754,-61.13774 z"
               id="rect3052-0"
               inkscape:connector-curvature="0"
               sodipodi:nodetypes="scccs" />
          </g>
        </g>
        <g
           id="g3187"
           transform="matrix(-0.78783009,-0.89993106,-0.89993106,0.78783009,1450.987,-352.90123)" />
        <path
           style="fill:#e6e6e6;stroke:none"
           d="m 436.10186,510.77364 c 63.96136,22.31979 134.34258,-52.64305 140.75706,-61.5174 -104.53674,93.84072 -145.57309,49.60422 -140.75706,61.5174 z"
           id="path3202"
           inkscape:connector-curvature="0"
           sodipodi:nodetypes="ccc" />
        <path
           style="fill:#ffffff;stroke:none"
           d="M 91.448898,730.85261 C 238.4214,668.21959 331.75112,595.42669 421.78998,512.86019 c -0.33407,-6.51185 -6.07204,-12.0651 22.76955,-37.97041 l 64.89439,-62.50669 C 381.75054,524.42204 285.57119,625.80268 91.448898,730.85261 z"
           id="path3984"
           inkscape:connector-curvature="0"
           sodipodi:nodetypes="ccccc" />
        <path
           style="fill:#b3b3b3;fill-opacity:0.97254902;stroke:none"
           d="m 203.8403,612.84692 c 10.67493,-9.29509 26.85406,-8.20392 36.18335,2.45284 0.23055,0.26336 0.4556,0.5341 0.67317,0.80433 -0.4304,-3.66668 -1.92239,-7.2548 -4.53797,-10.24256 -6.87848,-7.85722 -18.84293,-8.6519 -26.70016,-1.77341 l -0.33531,0.32451 c -2.58309,2.37535 -4.33726,5.2958 -5.28308,8.43429 z"
           id="path3986"
           inkscape:connector-curvature="0" />
        <path
           style="fill:#ffffff;stroke:none"
           d="m 389.81947,469.52797 c 8.6112,9.97009 13.94696,7.1883 30.44048,-6.56958 l 42.12576,-40.16864 c -49.66146,44.54715 -61.30958,54.00223 -72.56624,46.73822 z"
           id="path3984-5"
           inkscape:connector-curvature="0"
           sodipodi:nodetypes="cccc" />
        <path
           inkscape:transform-center-y="-4.9103007"
           inkscape:transform-center-x="4.4024261"
           transform="matrix(-0.67531875,0.38149937,-0.38149937,-0.67531875,831.65809,488.46906)"
           d="m 421.53939,400.36162 c -4.10371,4.59616 -1.64559,20.18789 -7.66711,21.49415 -6.02153,1.30627 -10.24505,-13.90248 -15.88437,-16.38505 -5.63932,-2.48258 -19.70833,4.67335 -22.81142,-0.64981 -3.10309,-5.32315 10.05616,-14.03972 10.67458,-20.17019 0.61842,-6.13047 -10.53483,-17.29959 -6.43112,-21.89575 4.10371,-4.59616 16.46009,5.22546 22.48161,3.9192 6.02153,-1.30627 13.19746,-15.36509 18.83678,-12.88252 5.63932,2.48257 0.11674,17.26923 3.21982,22.59238 3.10309,5.32316 18.69131,7.80345 18.07289,13.93392 -0.61842,6.13047 -16.38795,5.44751 -20.49166,10.04367 z"
           inkscape:randomized="0"
           inkscape:rounded="0.27"
           inkscape:flatsided="false"
           sodipodi:arg2="1.3571733"
           sodipodi:arg1="0.72885473"
           sodipodi:r2="35.965034"
           sodipodi:r1="20.500069"
           sodipodi:cy="386.70825"
           sodipodi:cx="406.24762"
           sodipodi:sides="5"
           id="path3766"
           style="fill:#ff6600;fill-opacity:0.97254902;fill-rule:nonzero;stroke:url(#linearGradient5371);stroke-width:1;stroke-linecap:round;stroke-linejoin:round;stroke-miterlimit:4;stroke-opacity:1;stroke-dasharray:none;stroke-dashoffset:0"
           sodipodi:type="star" />
      </g>
    </g>
  </g>
  <metadata
     id="metadata19">
    <rdf:RDF>
      <cc:Work>
        <dc:format>image/svg+xml</dc:format>
        <dc:type
           rdf:resource="http://purl.org/dc/dcmitype/StillImage" />
        <cc:license
           rdf:resource="http://creativecommons.org/licenses/publicdomain/" />
        <dc:publisher>
          <cc:Agent
             rdf:about="http://openclipart.org/">
            <dc:title>Open Clip Art Library</dc:title>
          </cc:Agent>
        </dc:publisher>
        <dc:title>R is for Rocket</dc:title>
        <dc:date>2011-05-21T13:37:18</dc:date>
        <dc:description>An easy Retro 60s Rocket</dc:description>
        <dc:source>http://openclipart.org/detail/139759/r-is-for-rocket-by-marauder</dc:source>
        <dc:creator>
          <cc:Agent>
            <dc:title>marauder</dc:title>
          </cc:Agent>
        </dc:creator>
        <dc:subject>
          <rdf:Bag>
            <rdf:li>60s</rdf:li>
            <rdf:li>athur c. clarke</rdf:li>
            <rdf:li>cartoon</rdf:li>
            <rdf:li>clip art</rdf:li>
            <rdf:li>clipart</rdf:li>
            <rdf:li>cosmic</rdf:li>
            <rdf:li>r is for rocket</rdf:li>
            <rdf:li>retro rocket</rdf:li>
            <rdf:li>rocket</rdf:li>
            <rdf:li>science</rdf:li>
            <rdf:li>space</rdf:li>
            <rdf:li>space</rdf:li>
            <rdf:li>transportation</rdf:li>
          </rdf:Bag>
        </dc:subject>
      </cc:Work>
      <cc:License
         rdf:about="http://creativecommons.org/licenses/publicdomain/">
        <cc:permits
           rdf:resource="http://creativecommons.org/ns#Reproduction" />
        <cc:permits
           rdf:resource="http://creativecommons.org/ns#Distribution" />
        <cc:permits
           rdf:resource="http://creativecommons.org/ns#DerivativeWorks" />
      </cc:License>
    </rdf:RDF>
  </metadata>
</svg>
